<svg width="15" height="18" viewBox="0 0 15 18" fill="none" xmlns="http://www.w3.org/2000/svg">
                <path d="M14.7455 15.3412C14.5727 14.9085 14.3758 14.4181 14.3758 13.9032V5.95318C14.3758 1.86416 10.8444 0 7.5602 0C4.11517 0 0.623922 2.04541 0.623922 5.95318V13.9032C0.623922 14.4181 0.428864 14.9085 0.256012 15.3412C0.0429484 15.8699 -0.138306 16.3243 0.14738 16.6964C0.364645 16.9797 0.74876 17.1345 1.2313 17.1345C1.70365 17.1345 2.20059 16.9839 2.62852 16.7102C2.83979 16.5734 3.14168 16.3927 3.35474 16.3927C3.42316 16.3927 3.60802 16.3927 3.86969 16.859C4.60971 18.1602 5.68764 18.3457 6.86639 17.3176C7.17968 17.0457 7.81767 17.0421 8.13337 17.3176C8.64052 17.7617 9.11106 17.9772 9.5732 17.9772C10.1842 17.9772 10.7075 17.6015 11.1301 16.859C11.3935 16.3927 11.5844 16.3927 11.6468 16.3927C11.8581 16.3927 12.1618 16.5734 12.3706 16.7102C12.7992 16.9839 13.2961 17.1345 13.7709 17.1345C14.2516 17.1345 14.6357 16.9797 14.853 16.6982C15.1381 16.3243 14.9568 15.8699 14.7455 15.3412Z" fill="white"></path>
                <path d="M4.92642 5.14258C5.10347 5.26922 5.28712 5.38686 5.47138 5.50389C5.49719 5.5195 5.52239 5.5351 5.5476 5.55071C5.50859 5.61132 5.47018 5.67254 5.43237 5.73376C5.38976 5.80398 5.34714 5.8742 5.30633 5.94562C5.26432 6.01644 5.22411 6.08847 5.18689 6.16229C5.11247 6.31053 5.04405 6.46418 4.99844 6.63343C4.99724 6.63763 4.99784 6.64303 5.00024 6.64723C5.00504 6.65504 5.01584 6.65804 5.02365 6.65263C5.17309 6.56021 5.30093 6.45157 5.42216 6.33814C5.48278 6.28112 5.5404 6.22231 5.59622 6.16229C5.65263 6.10227 5.70785 6.04165 5.76307 5.98103C5.82128 5.91621 5.8789 5.85079 5.93592 5.78417L6.03315 5.84119C6.2228 5.95042 6.41246 6.05966 6.60932 6.15929C6.70775 6.2091 6.80738 6.25772 6.90881 6.30213C7.01024 6.34774 7.11347 6.39036 7.2209 6.42817C7.2215 6.42817 7.2221 6.42817 7.2221 6.42817C7.2227 6.42757 7.2227 6.42697 7.2227 6.42637C7.15368 6.33634 7.08106 6.25111 7.00544 6.16949C6.93102 6.08667 6.85359 6.00744 6.77557 5.92942C6.61952 5.77397 6.45627 5.62753 6.29302 5.48169L6.22881 5.42527C6.28102 5.35745 6.33204 5.28843 6.38065 5.21761C6.45147 5.11378 6.43227 4.97033 6.33324 4.88991C6.22881 4.80468 6.07456 4.82029 5.98933 4.92532C5.94252 4.98293 5.89811 5.04235 5.85429 5.10177C5.83509 5.08557 5.81648 5.06936 5.79728 5.05316C5.62863 4.91451 5.45938 4.77707 5.28412 4.64803C5.28352 4.64743 5.28172 4.64623 5.28112 4.64563C5.14428 4.5478 4.95342 4.57962 4.8556 4.71646C4.75777 4.8539 4.78958 5.04475 4.92642 5.14258Z" fill="#B93AC6"></path>
                <path d="M10.3374 6.00199C10.1279 5.80153 9.90587 5.61968 9.6838 5.43782C9.6814 5.43602 9.6796 5.43422 9.6772 5.43302C9.81164 5.27937 9.94308 5.12393 10.0655 4.96068C10.1609 4.83224 10.1429 4.64979 10.0199 4.54355C9.89147 4.43252 9.69701 4.44693 9.58597 4.57596C9.45093 4.73261 9.3267 4.89706 9.20426 5.06331C9.13764 5.01289 9.07162 4.96128 9.0038 4.91206C8.77273 4.74341 8.53806 4.57956 8.29319 4.43072C8.13774 4.33709 7.93188 4.3725 7.81905 4.51955C7.69721 4.67799 7.72722 4.90486 7.88567 5.0267C8.11313 5.20135 8.3508 5.3604 8.59208 5.51404C8.6617 5.55786 8.73192 5.60047 8.80214 5.64308C8.79314 5.65689 8.78353 5.67009 8.77453 5.6839C8.64849 5.87595 8.52666 6.07161 8.41202 6.27267C8.35441 6.3729 8.29979 6.47553 8.24577 6.57936C8.19296 6.68319 8.14074 6.78823 8.09513 6.89806C8.09333 6.90346 8.09333 6.90886 8.09693 6.91426C8.10233 6.92147 8.11253 6.92387 8.12034 6.91847C8.21756 6.85004 8.30879 6.77622 8.39882 6.7024C8.48825 6.62798 8.57647 6.55175 8.6623 6.47433C8.83395 6.31888 8.9984 6.15744 9.15865 5.99299C9.18685 5.96418 9.21386 5.93477 9.24207 5.90596C9.27148 5.92277 9.30029 5.94017 9.3297 5.95698C9.57937 6.09802 9.83025 6.23846 10.0925 6.3615C10.224 6.42272 10.3578 6.48033 10.4952 6.53255C10.6327 6.58476 10.7737 6.63218 10.9226 6.66819C10.9232 6.66819 10.9232 6.66819 10.9238 6.66819C10.9244 6.66759 10.9244 6.66699 10.9244 6.66639C10.8367 6.54095 10.7419 6.42692 10.6429 6.31769C10.5445 6.20605 10.4424 6.10222 10.3374 6.00199Z" fill="#B93AC6"></path>
                <path d="M10.3448 8.33031C10.2295 8.37952 10.1131 8.42633 9.99728 8.45994C9.94026 8.47675 9.88024 8.49115 9.83283 8.48995C9.82263 8.48875 9.80942 8.48995 9.80522 8.48635C9.80402 8.48575 9.80222 8.48515 9.80102 8.48515L9.79862 8.48455L9.79382 8.48275L9.77401 8.47555L9.68818 8.44254C9.56995 8.39753 9.44631 8.35131 9.30287 8.33211C9.23145 8.3231 9.15343 8.3195 9.0658 8.34111L9.03279 8.35071L9.01658 8.35611L8.99978 8.36332L8.96677 8.37952L8.95837 8.38372C8.95597 8.38492 8.95116 8.38732 8.95417 8.38552C8.95597 8.38372 8.95777 8.38192 8.96017 8.38072C8.97817 8.37172 8.96977 8.37532 8.95356 8.36992C8.91815 8.36032 8.86474 8.33931 8.81252 8.3147L8.64627 8.23608C8.53164 8.18206 8.4098 8.12744 8.27536 8.08783C8.20874 8.06743 8.13792 8.05062 8.0641 8.04102C7.99028 8.03142 7.91225 8.02601 7.83183 8.03442C7.75141 8.04222 7.66918 8.06022 7.59056 8.09263L7.53234 8.11844L7.47712 8.14965C7.45852 8.15985 7.44231 8.17306 7.42491 8.18446L7.3841 8.21327C7.31027 8.26909 7.21484 8.3129 7.11221 8.34651C7.00958 8.38072 6.89855 8.40173 6.78572 8.41793C6.55885 8.44914 6.32238 8.44614 6.08711 8.42513C5.67538 8.38552 5.26666 8.28109 4.87955 8.12084C4.88555 8.11184 4.89155 8.10344 4.89695 8.09503C4.93236 8.04102 4.96357 7.9864 4.99358 7.93059C5.00858 7.90298 5.02299 7.87477 5.03679 7.84656C5.0512 7.81775 5.0638 7.79134 5.07761 7.75833L5.08001 7.75293C5.08421 7.74333 5.08721 7.73313 5.09021 7.72292C5.11962 7.60649 5.0494 7.48825 4.93296 7.45884C4.81653 7.42944 4.69829 7.49966 4.66888 7.61549C4.66288 7.6383 4.65448 7.66711 4.64728 7.69292C4.63947 7.71992 4.63167 7.74633 4.62327 7.77274C4.60706 7.82615 4.58966 7.87897 4.57165 7.92999C4.55305 7.981 4.53384 8.03202 4.51224 8.07823C4.50143 8.10104 4.49003 8.12384 4.47923 8.14365L4.47082 8.15925L4.46242 8.17186L4.45402 8.18506L4.43361 8.21207C4.3772 8.28949 4.36159 8.36331 4.35079 8.43053C4.34119 8.49836 4.34059 8.56257 4.34299 8.62559C4.34959 8.75163 4.37059 8.87227 4.4036 8.9899C4.4054 8.9959 4.41021 9.00071 4.41681 9.00131C4.42581 9.00251 4.43421 8.9965 4.43541 8.9881V8.9875C4.45462 8.86987 4.47863 8.75283 4.51044 8.6442C4.52604 8.58958 4.54585 8.53797 4.56685 8.49115C4.58846 8.44554 4.61787 8.40653 4.63887 8.39452L4.64248 8.39212L4.64428 8.39092L4.64728 8.38852L4.66948 8.36992L4.68509 8.35671C5.10101 8.59318 5.56255 8.74803 6.04089 8.81585C6.30137 8.85306 6.56725 8.86206 6.83613 8.83386C6.97117 8.81945 7.10621 8.79424 7.24125 8.75163C7.37629 8.70902 7.51193 8.652 7.63977 8.55897L7.66258 8.54277L7.67518 8.53377C7.68359 8.52836 7.69139 8.52056 7.70039 8.51636C7.70939 8.51156 7.7178 8.50616 7.7268 8.50136L7.75441 8.48935C7.79162 8.47435 7.83183 8.46295 7.87564 8.45754C7.96387 8.44674 8.0659 8.45574 8.17333 8.47855C8.28076 8.50136 8.393 8.53617 8.51003 8.57458C8.56825 8.59378 8.62827 8.61419 8.69189 8.6334C8.75611 8.6526 8.82153 8.67301 8.90975 8.68261C8.92056 8.68381 8.93436 8.68381 8.94576 8.68441C8.95236 8.68441 8.95777 8.68501 8.96437 8.68441L8.98658 8.68261L9.00818 8.68021C9.01538 8.67961 9.02499 8.67661 9.03339 8.67481C9.05079 8.67061 9.067 8.66641 9.08621 8.6556C9.09581 8.6508 9.10481 8.646 9.11381 8.6406L9.12162 8.6358C9.12402 8.634 9.12702 8.6316 9.12942 8.62979L9.13362 8.62619L9.13902 8.62379L9.15042 8.61779C9.18283 8.60279 9.23205 8.59498 9.28426 8.59378C9.33708 8.59318 9.3941 8.59679 9.45231 8.60399C9.51053 8.61119 9.56995 8.62319 9.63117 8.634L9.726 8.6514L9.7512 8.6556L9.75781 8.6568L9.76741 8.6574L9.78601 8.6586C9.81302 8.66101 9.83043 8.6556 9.85143 8.6526C9.92826 8.6358 9.98587 8.60519 10.0441 8.57398C10.1581 8.50976 10.2614 8.43654 10.3592 8.35551C10.3646 8.35131 10.3664 8.34351 10.3634 8.33691C10.3622 8.33031 10.3526 8.3267 10.3448 8.33031Z" fill="#B93AC6"></path>
                </svg>